HIERARCHY
ROOT Hips
{
	OFFSET -14.64140 90.27770 -84.91600
	CHANNELS 6 Xposition Yposition Zposition Zrotation Xrotation Yrotation
	JOINT Spine
	{
		OFFSET 0.00000 13.20850 -1.60436
		CHANNELS 3 Zrotation Xrotation Yrotation
		JOINT Spine1
		{
			OFFSET 0.00000 8.61716 0.00000
			CHANNELS 3 Zrotation Xrotation Yrotation
			JOINT Spine2
			{
				OFFSET 0.00000 8.61717 0.00000
				CHANNELS 3 Zrotation Xrotation Yrotation
				JOINT Spine3
				{
					OFFSET 0.00000 8.61717 0.00000
					CHANNELS 3 Zrotation Xrotation Yrotation
					JOINT Neck
					{
						OFFSET 0.00000 11.07920 1.10792
						CHANNELS 3 Zrotation Xrotation Yrotation
						JOINT Neck1
						{
							OFFSET 0.00000 7.08032 0.00000
							CHANNELS 3 Zrotation Xrotation Yrotation
							JOINT Head
							{
								OFFSET 0.00000 7.08031 0.00000
								CHANNELS 3 Zrotation Xrotation Yrotation
								End site
								{
									OFFSET 0.00000 0.00000 0.00000
								}
							}
						}
					}
					JOINT RightShoulder
					{
						OFFSET -0.01000 7.91373 5.19711
						CHANNELS 3 Zrotation Xrotation Yrotation
						JOINT RightArm
						{
							OFFSET -18.41580 0.00000 0.00000
							CHANNELS 3 Zrotation Xrotation Yrotation
							JOINT RightForeArm
							{
								OFFSET -29.11090 0.00000 0.00000
								CHANNELS 3 Zrotation Xrotation Yrotation
								JOINT RightHand
								{
									OFFSET -24.65040 0.00000 0.00000
									CHANNELS 3 Zrotation Xrotation Yrotation
									JOINT RightHandThumb1
									{
										OFFSET -5.35114 -0.85590 3.97906
										CHANNELS 3 Zrotation Xrotation Yrotation
										JOINT RightHandThumb2
										{
											OFFSET -4.52789 0.00000 0.00000
											CHANNELS 3 Zrotation Xrotation Yrotation
											JOINT RightHandThumb3
											{
												OFFSET -2.46976 0.00000 0.00000
												CHANNELS 3 Zrotation Xrotation Yrotation
												End site
												{
													OFFSET 0.00000 0.00000 0.00000
												}
											}
										}
									}
									JOINT RightHandIndex1
									{
										OFFSET -14.26970 0.00000 2.88139
										CHANNELS 3 Zrotation Xrotation Yrotation
										JOINT RightHandIndex2
										{
											OFFSET -5.48836 0.00000 0.00000
											CHANNELS 3 Zrotation Xrotation Yrotation
											JOINT RightHandIndex3
											{
												OFFSET -3.01859 0.00000 0.00000
												CHANNELS 3 Zrotation Xrotation Yrotation
												End site
												{
													OFFSET 0.00000 0.00000 0.00000
												}
											}
										}
									}
									JOINT RightHandMiddle1
									{
										OFFSET -14.26970 0.00000 -0.09147
										CHANNELS 3 Zrotation Xrotation Yrotation
										JOINT RightHandMiddle2
										{
											OFFSET -6.17441 0.00000 0.00000
											CHANNELS 3 Zrotation Xrotation Yrotation
											JOINT RightHandMiddle3
											{
												OFFSET -3.56743 0.00000 0.00000
												CHANNELS 3 Zrotation Xrotation Yrotation
												End site
												{
													OFFSET 0.00000 0.00000 0.00000
												}
											}
										}
									}
									JOINT RightHandRing1
									{
										OFFSET -12.69180 0.00000 -3.06433
										CHANNELS 3 Zrotation Xrotation Yrotation
										JOINT RightHandRing2
										{
											OFFSET -5.62556 0.00000 0.00000
											CHANNELS 3 Zrotation Xrotation Yrotation
											JOINT RightHandRing3
											{
												OFFSET -3.56744 0.00000 0.00000
												CHANNELS 3 Zrotation Xrotation Yrotation
												End site
												{
													OFFSET 0.00000 0.00000 0.00000
												}
											}
										}
									}
									JOINT RightHandPinky1
									{
										OFFSET -11.11390 0.00000 -6.03719
										CHANNELS 3 Zrotation Xrotation Yrotation
										JOINT RightHandPinky2
										{
											OFFSET -4.52789 0.00000 0.00000
											CHANNELS 3 Zrotation Xrotation Yrotation
											JOINT RightHandPinky3
											{
												OFFSET -2.46976 0.00000 0.00000
												CHANNELS 3 Zrotation Xrotation Yrotation
												End site
												{
													OFFSET 0.00000 0.00000 0.00000
												}
											}
										}
									}
								}
							}
						}
					}
					JOINT LeftShoulder
					{
						OFFSET 0.01000 7.91373 5.19711
						CHANNELS 3 Zrotation Xrotation Yrotation
						JOINT LeftArm
						{
							OFFSET 18.41580 0.00000 0.00000
							CHANNELS 3 Zrotation Xrotation Yrotation
							JOINT LeftForeArm
							{
								OFFSET 29.11090 0.00000 0.00000
								CHANNELS 3 Zrotation Xrotation Yrotation
								JOINT LeftHand
								{
									OFFSET 24.65040 0.00000 0.00000
									CHANNELS 3 Zrotation Xrotation Yrotation
									JOINT LeftHandThumb1
									{
										OFFSET 5.35114 -0.85590 3.97906
										CHANNELS 3 Zrotation Xrotation Yrotation
										JOINT LeftHandThumb2
										{
											OFFSET 4.52789 0.00000 0.00000
											CHANNELS 3 Zrotation Xrotation Yrotation
											JOINT LeftHandThumb3
											{
												OFFSET 2.46977 0.00000 0.00000
												CHANNELS 3 Zrotation Xrotation Yrotation
												End site
												{
													OFFSET 0.00000 0.00000 0.00000
												}
											}
										}
									}
									JOINT LeftHandIndex1
									{
										OFFSET 14.26970 0.00000 2.88139
										CHANNELS 3 Zrotation Xrotation Yrotation
										JOINT LeftHandIndex2
										{
											OFFSET 5.48836 0.00000 0.00000
											CHANNELS 3 Zrotation Xrotation Yrotation
											JOINT LeftHandIndex3
											{
												OFFSET 3.01859 0.00000 0.00000
												CHANNELS 3 Zrotation Xrotation Yrotation
												End site
												{
													OFFSET 0.00000 0.00000 0.00000
												}
											}
										}
									}
									JOINT LeftHandMiddle1
									{
										OFFSET 14.26970 0.00000 -0.09147
										CHANNELS 3 Zrotation Xrotation Yrotation
										JOINT LeftHandMiddle2
										{
											OFFSET 6.17440 0.00000 0.00000
											CHANNELS 3 Zrotation Xrotation Yrotation
											JOINT LeftHandMiddle3
											{
												OFFSET 3.56744 0.00000 0.00000
												CHANNELS 3 Zrotation Xrotation Yrotation
												End site
												{
													OFFSET 0.00000 0.00000 0.00000
												}
											}
										}
									}
									JOINT LeftHandRing1
									{
										OFFSET 12.69180 0.00000 -3.06433
										CHANNELS 3 Zrotation Xrotation Yrotation
										JOINT LeftHandRing2
										{
											OFFSET 5.62556 0.00000 0.00000
											CHANNELS 3 Zrotation Xrotation Yrotation
											JOINT LeftHandRing3
											{
												OFFSET 3.56744 0.00000 0.00000
												CHANNELS 3 Zrotation Xrotation Yrotation
												End site
												{
													OFFSET 0.00000 0.00000 0.00000
												}
											}
										}
									}
									JOINT LeftHandPinky1
									{
										OFFSET 11.11390 0.00000 -6.03719
										CHANNELS 3 Zrotation Xrotation Yrotation
										JOINT LeftHandPinky2
										{
											OFFSET 4.52789 0.00000 0.00000
											CHANNELS 3 Zrotation Xrotation Yrotation
											JOINT LeftHandPinky3
											{
												OFFSET 2.46976 0.00000 0.00000
												CHANNELS 3 Zrotation Xrotation Yrotation
												End site
												{
													OFFSET 0.00000 0.00000 0.00000
												}
											}
										}
									}
								}
							}
						}
					}
					JOINT pCube4
					{
						OFFSET 0.00000 10.91090 1.10792
						CHANNELS 3 Zrotation Xrotation Yrotation
						End site
						{
							OFFSET 0.00000 0.00000 0.00000
						}
					}
				}
			}
		}
	}
	JOINT RightUpLeg
	{
		OFFSET -9.98441 0.00000 0.00000
		CHANNELS 3 Zrotation Xrotation Yrotation
		JOINT RightLeg
		{
			OFFSET 0.00000 -42.11790 0.00000
			CHANNELS 3 Zrotation Xrotation Yrotation
			JOINT RightFoot
			{
				OFFSET 0.00000 -45.00020 -0.00001
				CHANNELS 3 Zrotation Xrotation Yrotation
				JOINT RightForeFoot
				{
					OFFSET 0.00000 -3.74820 0.00000
					CHANNELS 3 Zrotation Xrotation Yrotation
					JOINT RightToeBase
					{
						OFFSET 0.00000 0.06325 14.43120
						CHANNELS 3 Zrotation Xrotation Yrotation
						End site
						{
							OFFSET 0.00000 0.00000 0.00000
						}
					}
				}
			}
		}
	}
	JOINT LeftUpLeg
	{
		OFFSET 9.98441 0.00000 0.00000
		CHANNELS 3 Zrotation Xrotation Yrotation
		JOINT LeftLeg
		{
			OFFSET 0.00000 -42.11800 0.00000
			CHANNELS 3 Zrotation Xrotation Yrotation
			JOINT LeftFoot
			{
				OFFSET 0.00000 -45.00070 0.00000
				CHANNELS 3 Zrotation Xrotation Yrotation
				JOINT LeftForeFoot
				{
					OFFSET 0.00000 -3.74824 0.00000
					CHANNELS 3 Zrotation Xrotation Yrotation
					JOINT LeftToeBase
					{
						OFFSET 0.00000 0.06325 14.43110
						CHANNELS 3 Zrotation Xrotation Yrotation
						End site
						{
							OFFSET 0.00000 0.00000 0.00000
						}
					}
				}
			}
		}
	}
}
MOTION
Frames: 4
Frame Time: 0.050000
0.010963731038545628 0.013883952849665988 -0.03047887183090299 -0.044301872934135594 0.0030283735131749145 0.0382196102349884 1.411239901922936 3.9974729792826826 -1.5723709199681475 -0.5774030830135474 4.04594991795754 0.3287617441397549 -0.5253999464305015 -1.4090000646555934 0.6859158691071288 -1.3858449971997786 -0.654228818800953 -0.27094481559090083 -1.1835278168637673 12.853600627085209 1.3620712459130413 0.3466296918259014 -2.017960556130851 3.2335284523889443 0.21271495292467413 -19.15500041189158 0.2192928976263156 -4.864119410414113 2.070731489112422 -16.37565893941933 78.80376925908595 9.485340183946407 -1.6617544226381364 0.5621937734177714 3.2216650506293023 52.79422823622809 25.539360753386056 -0.3455715500564669 -2.643215008856455 4.566352873137506 -0.1277853145530235 -1.6019991152706392 -0.03267401285599158 0.03542838264090033 -56.272029326215154 -0.019314524564181944 0.022590833930255044 -56.222238008413875 -38.72738416556617 0.012921533932531072 -0.035520644052229926 0.01134048265853446 0.02958486760891643 -0.04950193694540021 -0.045125530476713915 -0.038484838422554776 0.03290773333050045 -36.67772770464139 0.0386579797014541 0.04901084412531523 0.04153771812468856 -0.004791180829173779 0.017581828993115174 0.042223066334114094 0.02024201324885944 0.024890372515495227 -19.783046116170308 0.019713572597693723 0.014867298855815763 -0.00018787879193586006 -0.024370205443601325 0.00632629546569179 0.011841156656371771 0.04478869508324316 -0.029534922914725658 24.052104580175527 0.024057004413068097 -0.00841807956221018 28.840143608242958 -0.03795667811078492 0.009867793110234991 28.891234972175262 -0.01877729900910925 -0.013373948209974635 8.212581484233915 1.997760718084608 14.964817392566191 -78.51025376391449 16.265546176132382 -12.05812066545553 -1.2617749339555482 12.070115666997967 -48.19543130458938 -27.333361509257344 8.338327696333138 -3.8698102666660232 -0.4585342790311414 0.07028524916004567 -8.105871196715219 -0.001180440671644109 -0.010314018966672927 44.56716987115523 -0.04708490679071732 0.03853349115936865 44.55402084944954 12.47810497796407 0.034893456669197125 -0.029006301984364772 0.019269290321815596 -0.025491741741510778 -0.03373449131999312 -0.04678261784445388 0.04128304668105362 -0.010891575046020672 11.154711753514533 -0.014015091122514136 -0.009428380447232569 0.007037099772568244 -0.020535637286761426 0.030961763582009732 -0.018241558849689702 0.032163173077670436 0.04014474237158246 4.7988762429807625 0.01061368804779798 0.04960078844398783 -0.007237504722181871 0.018794169322408835 0.01602902860012158 -0.01700293098854208 0.021513249612113167 0.02577462411051242 -5.593315468984667 0.023077463737471486 0.03647034212144337 -6.709365115664442 0.023976699188716734 0.029961161755340724 -6.728327534796905 0.03942259340163109 0.00033742488961348017 0.01634413375140493 -0.02108404727775294 0.04751190013694689 8.026313394301443 3.459302622732279 -19.214917272353773 0.04077177894495371 10.359714364502203 0.009015090167600692 -5.632795272127701 -15.6565462776837 3.2012139374098427 0.0071888150172435515 -0.02778236023324679 -0.00730406868324403 -0.00015688035272147692 4.692442240132405 0.0300504229988069 12.442347893112997 -8.195064748370081 6.887337607229949 -0.016616679758751224 46.37187710062572 -0.03825505090334017 -4.335355199205174 -14.764546637543575 -3.8605386738126426 0.015312076909665 -0.034543284107591755 -0.04401191252730017 -0.03151843783496613 -10.759605930036768 0.020599207152553322 
0.030247342381332434 -0.01914171745454584 0.031028634713574445 -0.041658941268385624 -0.038702875425706884 0.003664452104425513 0.9289300954410651 3.997223352088694 -1.4431048039177674 -0.5697208672733683 4.1133078908735055 0.3111994553054613 -0.579584366975946 -1.4384658380601003 0.7307377555743224 -1.463141503122046 -0.7112907275809914 -0.2947109190593289 -1.1550289085645684 12.848387750280464 1.2623170034166085 0.31253846817171604 -2.2487053614455284 3.0070666333196803 0.2888950341599966 -19.30433267640491 0.1713435986465992 -4.630458858143328 1.9637170743926509 -16.31224035819933 78.53155432550285 9.565378062512126 -1.6114507994712322 -0.5865930108775732 3.216965696973204 54.18237270798693 26.38468631822047 -0.3645517369792603 -2.897959415193056 4.571388396603361 -0.11551241657824476 -1.6402342281181739 0.022615853650383322 0.034682067193898575 -56.2253274212976 -0.0013566834602072443 -0.030593334995919763 -56.18722085868568 -38.79251247524782 0.04688112538904929 -0.03393211887118786 -0.006946838458394336 0.016491238664114782 -0.023542474825948803 -0.025859279617962982 -0.031534384537953354 -0.0018392375171070693 -36.676301426783056 -0.006041552517631806 0.028767035774990287 -0.009988106605893199 0.008505940825380314 0.031633712770882685 -0.002076873828132879 -0.04493282991957846 -0.02675962336471949 -19.749451752073764 -0.000292241589466875 -0.025770496136413593 0.03193604991633727 -0.03255944751681814 0.044822044666574634 0.016599792171568033 -0.0017806793444481738 -0.022626217986657707 24.02280273396244 -0.0011551616312178322 0.014377690455232213 28.88866332958998 0.026647092540320837 -0.011352861135825197 28.851848965153405 0.012860192558102822 -0.009680419539130455 7.845068050007567 1.9198968213542151 15.06295620739518 -78.8043558826834 15.891296020863207 -11.325194504182422 -0.37459528996637353 12.098164299224079 -47.1683364924238 -28.246046386111075 9.265234447521156 -4.597318037483107 -0.5143746930262427 0.043345603950769196 -8.119269561713676 -0.006084183959909817 0.012142016727306061 44.60719359951115 0.002112172151717104 0.038205079158118146 44.58588539841646 12.485900830845472 0.017912793917684997 0.004323696852164267 -0.03986627287201099 0.03902246192761014 -0.011098359162883408 -0.017407681933018046 -0.004254049749384767 -0.01755197231015813 11.12059105101037 0.015408224081024656 0.015197169060692926 -0.010592535938660686 0.0022753266278298556 -0.04883254458984977 0.01238108469541081 -0.03924525112977211 0.01841866772287204 4.756062144855693 -0.0032790386075393146 0.011140487189742688 -0.019416247125268286 0.02230268058801542 0.032640798199867954 0.041686951876949804 0.0027754401607571117 0.015371311889876409 -5.587744623185123 0.012638522265559492 0.031399791221169114 -6.749471733801106 -0.026701353142181226 -0.02185386593935958 -6.68258888766541 0.02656186383071256 0.007869015490551634 0.011143632443989237 -0.016053338906237516 -0.0027382403796947126 7.996690457302608 3.519506416783067 -19.265106077328404 -0.028726152709991664 10.362476612561363 -0.013224259781695308 -5.642785585084128 -15.666753602655408 3.148090056796188 0.024272341517505527 0.02260787735058002 -0.00907380237988876 0.004978489458232033 4.741122637723274 0.022527274981890503 12.487138931863585 -8.259063374001139 6.871412556811326 0.019804264054053854 46.34391746250201 -0.006094949599934599 -4.321813880083032 -14.735732947770142 -3.8791487886353933 -0.016678517780899196 -0.027162982532550426 0.00896201679587779 0.04346936254126703 -10.742910736792577 -0.020803198602283635 
-0.04256647604291269 0.0025284126459070113 0.031109115098349877 -0.002242534254746115 0.032160861563120265 0.008384398725246286 0.5688075558481795 4.091543291311327 -1.4315007845433536 -0.5437054612400568 4.081591988731922 0.2750674389919333 -0.605474500077856 -1.4409974675493045 0.7502958336114337 -1.4556961477502581 -0.7687095621690945 -0.30026067687582 -1.1463681450875884 12.782054664610925 1.2448673936061012 0.3702093136246587 -2.269089649392989 2.8632994808391223 0.3043706217823413 -19.512360563933406 0.12206975516408708 -4.400189703491218 1.9345164216153936 -16.24411164975155 78.33181872830463 9.873295564528654 -1.7311948783590612 -1.50713507076259 2.9380321283650037 55.67984564855002 27.13776995444556 -0.30258050774297107 -3.0718657784475094 4.55337016624243 -0.15510423864003847 -1.5956483657545262 -0.02850500688925762 -0.005161010805073024 -56.21324362393976 0.03249501728446946 0.02039912191943606 -56.24238827533176 -38.73744621516049 -0.01929961810378186 0.04764407239656546 -0.04174268994945665 0.018850012391974823 -0.04590116427551045 -0.037029580629811355 -0.029598619637721847 0.0032958311698671125 -36.6726118968604 -0.00668143980430864 0.002796842828899661 -0.04514615291702702 -0.0012285969459628903 0.026153273369170515 0.02913272879526043 -0.03823175502201005 -0.036541258495151024 -19.77687356793553 0.013477094012380605 0.0050857003417208516 -0.04756506026272461 0.035689712433846485 -0.016066122051855078 -0.018298584534813464 0.019093350362400098 -0.007608528591328858 24.01807340033695 -0.047270640482937464 -0.015075778508429854 28.883489081754906 -0.010679932105152624 -0.03403068024186152 28.847599592222696 -0.026546271723318932 -0.02695392789331171 7.596416857723301 1.9503847596046715 15.054825319837438 -78.91546931386792 15.978310754001887 -10.637623320612414 -0.09463148232784743 11.304084168317793 -46.55073509821549 -28.894041683921625 9.70699418778014 -4.885207199784487 -0.45970852157480296 0.024519477265737208 -8.155818077467229 -0.005171182597024195 0.025690461913006172 44.5881002617899 -0.022898653755397177 -0.03150122055181117 44.53468216143768 12.461960932735073 0.001930823156445241 -0.02653289044385635 -0.025124401448482894 -0.004299620908745663 -0.027865684533214235 -0.023542176020571126 -0.04123116647432546 -0.030837532295524328 11.090103879355524 -0.02312348082019613 0.02114831390623675 0.01986195971442613 -0.015944634455352293 -0.04365103135241235 0.011591631312737338 -0.030749203255195274 -0.013791830706668017 4.766526308893151 -0.011571260517702638 0.04558472743435702 -0.006507813713515091 0.02016903169089168 0.02560664506181169 -0.0026943430145182404 0.003504558752750325 0.0021210109217997273 -5.596976952780618 -0.03665538171425751 0.023854975459233846 -6.7079115255771535 -0.028390469511184915 0.019949928529246753 -6.710748408365237 0.026135838718226414 -0.04014637817753415 -0.003196320626479533 -0.01843325749899352 -0.004064670698022261 8.064903402558997 3.473976909419245 -19.226102079344898 0.007034529251706831 10.417870189847045 -0.008416638434621395 -5.63271580705488 -15.632864720948223 3.176301611907345 -0.02539698487125084 -0.021137827739252612 -0.02957815364537062 -0.04026100202246444 4.709463358954429 -0.0026500680773351624 12.430554775619074 -8.269788547305991 6.904694815092223 -0.01874504624921858 46.3895423122029 0.004988386822920474 -4.3046462817348425 -14.72344772048645 -3.859126973793474 0.010403623942590853 -0.02620305945190356 0.012518596852962293 0.012827004849875595 -10.714493738841666 0.021001705934024412 
0.01955599843347514 0.004491198161558048 -0.026384623007327863 -0.03598106462885616 0.04284444343216315 -0.01219796695542848 0.024195337295267034 4.04610551005702 -1.3941501111541328 -0.4865666702546954 4.162136521798071 0.279368100789385 -0.587293651688718 -1.4546969260995748 0.744522139064876 -1.503528289892489 -0.7246594986193984 -0.2681443913301115 -1.1565100201883702 12.687742618168077 1.2857764899353847 0.3704697836808391 -2.3966037954500523 2.844343462917788 0.32067845655929633 -19.61134877660398 0.10885726723886999 -4.005320492418278 1.7498251809093215 -16.11935111747474 78.07209763885307 9.646592674640567 -1.8757018123642597 -2.1764848175904974 3.6872488986021525 55.903200915014 27.86125622428691 -0.32923035590220906 -2.873674881562956 4.520813682525246 -0.17612523611226671 -1.6098459057445413 0.022490457459282586 -0.030241417296968276 -56.219347852869106 0.04197713478247236 0.02057292569102574 -56.21365153421102 -38.77322452007281 0.024366025518691152 -0.026991596711019528 -0.04594680476785743 0.041237613867720374 0.03367357996216953 -0.03182259548404317 0.034705025019845445 0.030714432204150845 -36.72157940441369 0.04196516346233296 0.018865960732272 -0.02559754308680555 0.004874198938287469 0.035140717795175636 0.04531115201570891 -0.018448124056302674 0.048718018611140376 -19.709237087402265 0.006676357280514709 -0.018342033618942252 -0.013217126831857755 -0.032374879992308585 0.01810282539511614 -0.005073442073025196 -0.043930628574923664 -0.018724180766604297 24.024715584337823 -0.03793002392971418 -0.03211730380817757 28.836057196976224 -0.018671042323406176 -0.007708294393557886 28.903797292608058 -0.005050787769769624 0.013770990449256674 7.181907493605722 1.828900952192117 15.024328734611212 -79.1259152964252 15.72350878459311 -9.905817994109933 0.9348693191225861 11.368207393831403 -45.13131754874775 -29.488360051236455 10.904960864513354 -5.897046703592926 -0.5141439258777383 0.08743417590494157 -8.151379609996837 0.009740917522883247 0.048881585464913585 44.53722336959442 0.0018576300587548973 0.04082593093964338 44.60446517084467 12.449211270678704 0.022664605831098788 0.022458378999987993 -0.03572598941132769 -0.0281932944059445 -0.024897398033639738 0.025426142131516578 0.0015583418775922339 -0.04617116621986982 11.063191303825207 0.021063883680555853 -0.018765029423108284 -0.0017414311645181845 -0.03891165523803014 -0.04044358346689864 -0.008177279001730502 -0.00992520406776506 -0.01893863962606452 4.774726970142272 -0.008954664851362619 0.011444634188964416 -0.012894283017590047 -0.009158725760809385 0.03576686723693125 0.018690551050328044 -0.045449806994115174 0.045135251067053 -5.57908659898964 -0.014174139929549556 -0.04490472596602131 -6.733109768936378 0.02278342201787517 -0.009431238572699863 -6.7437913812983465 0.03511577355842316 -0.020381015864181312 0.011940398712199766 0.031135062115694803 -0.043233127210601754 8.09426682974488 3.454759257399325 -19.256011298494663 -0.03267947234812247 10.43318505786915 0.01923807409387359 -5.5881451056843305 -15.64014063587911 3.225490505995905 0.013779399443061698 -0.006614374373171396 0.014135361680291631 -0.039914312443252095 4.65970872554212 -0.010179599231137931 12.477974322185947 -8.228369218456125 6.896710431752474 -0.005307417922039319 46.387423488469985 0.02459493752273699 -4.348462855477144 -14.767781690421424 -3.847541987800622 0.007531796270435045 0.045004465733298055 0.030743321964205435 -0.03359702738924054 -10.723373427161942 0.007219943236021522 
